<svg width="40" height="40" viewBox="0 0 40 40" fill="none" xmlns="http://www.w3.org/2000/svg">
<circle cx="20" cy="20" r="20" fill="#FAC515"/>
<path d="M14.4484 12.846L28.2679 19.6554C28.3433 19.6926 28.4067 19.7501 28.4511 19.8214C28.4955 19.8927 28.519 19.9751 28.519 20.0591C28.519 20.1431 28.4955 20.2254 28.4511 20.2968C28.4067 20.3681 28.3433 20.4256 28.2679 20.4627L14.4475 27.2721C14.3701 27.3102 14.2834 27.3252 14.1977 27.3153C14.112 27.3054 14.0309 27.2712 13.9641 27.2165C13.8974 27.1619 13.8477 27.0892 13.8211 27.0072C13.7945 26.9251 13.792 26.8372 13.8139 26.7537L15.1828 21.5832C15.205 21.4996 15.2509 21.4241 15.3149 21.3658C15.3789 21.3076 15.4583 21.269 15.5437 21.2547L21.7366 20.2224C21.7735 20.2163 21.8083 20.2011 21.8379 20.1782C21.8674 20.1552 21.8908 20.1253 21.9058 20.091L21.922 20.037C21.9304 19.987 21.9217 19.9356 21.8971 19.8911C21.8726 19.8467 21.8338 19.8118 21.787 19.7922L21.7366 19.7778L15.5095 18.7401C15.4243 18.7257 15.345 18.6871 15.2812 18.6288C15.2174 18.5706 15.1716 18.4952 15.1495 18.4116L13.8139 13.3653C13.7917 13.2819 13.7941 13.1938 13.8206 13.1116C13.8471 13.0293 13.8968 12.9565 13.9636 12.9018C14.0304 12.847 14.1115 12.8126 14.1974 12.8028C14.2832 12.7929 14.37 12.8079 14.4475 12.846H14.4484Z" fill="#854A0E"/>
</svg>
