<svg width="40" height="40" viewBox="0 0 40 40" fill="none" xmlns="http://www.w3.org/2000/svg">
<circle cx="20" cy="20" r="20" fill="#D0D5DD"/>
<g clip-path="url(#clip0_4672_62980)">
<path d="M20 11L19.6715 11.1642L12.1723 14.8438L11.75 15.0545V16.3438H28.25V15.0545L27.8278 14.8438L20.3278 11.1642L20 11ZM20 12.6875L24.4062 14.8438H15.5938L20 12.6875ZM13.25 17.0938V24.5938H12.5V26.0938H27.5V24.5938H26.75V17.0938H25.25V24.5938H23.75V17.0938H22.25V24.5938H20.75V17.0938H19.25V24.5938H17.75V17.0938H16.25V24.5938H14.75V17.0938H13.25ZM11 26.8438V28.3438H29V26.8438H11Z" fill="black"/>
</g>
<defs>
<clipPath id="clip0_4672_62980">
<rect width="18" height="18" fill="white" transform="translate(12 11)"/>
</clipPath>
</defs>
</svg>
