<svg width="40" height="40" viewBox="0 0 40 40" fill="none" xmlns="http://www.w3.org/2000/svg">
<circle cx="20" cy="20" r="20" fill="#D0D5DD"/>
<path d="M20.5303 20.9899C17.7063 20.9899 15.307 21.8111 13.7399 23.0983V25.4923H27.3217V23.0983C25.7546 21.8111 23.3548 20.9899 20.5303 20.9899V20.9899ZM33 19.7613L20.4974 14L8 19.7613L10.0832 20.7147V22.181C9.56087 22.2891 9.5593 22.5628 9.5593 22.8883C9.5593 23.0805 9.62303 23.3057 9.74422 23.4404L9.02961 24.97H11.5788L10.8705 23.4394C10.9896 23.3046 11.0873 23.1061 11.0873 22.9139C11.0873 22.5889 10.6056 22.2886 10.6056 22.1805V20.9597L13.2175 22.1329V22.029C14.7847 20.6661 17.5381 19.801 20.5298 19.801C23.5225 19.801 26.277 20.6661 27.8441 22.029V22.1329L33 19.7613V19.7613Z" fill="black"/>
</svg>
