<svg width="8" height="16" viewBox="0 0 8 16" fill="none" xmlns="http://www.w3.org/2000/svg">
<path d="M7.00033 4.00033V11.667C7.00033 13.1403 5.80699 14.3337 4.33366 14.3337C2.86033 14.3337 1.66699 13.1403 1.66699 11.667V3.33366C1.66699 2.41366 2.41366 1.66699 3.33366 1.66699C4.25366 1.66699 5.00033 2.41366 5.00033 3.33366V10.3337C5.00033 10.7003 4.70033 11.0003 4.33366 11.0003C3.96699 11.0003 3.66699 10.7003 3.66699 10.3337V4.00033H2.66699V10.3337C2.66699 11.2537 3.41366 12.0003 4.33366 12.0003C5.25366 12.0003 6.00033 11.2537 6.00033 10.3337V3.33366C6.00033 1.86033 4.80699 0.666992 3.33366 0.666992C1.86033 0.666992 0.666992 1.86033 0.666992 3.33366V11.667C0.666992 13.6937 2.30699 15.3337 4.33366 15.3337C6.36033 15.3337 8.00033 13.6937 8.00033 11.667V4.00033H7.00033Z" fill="#1D2939"/>
</svg>
