<svg width="18" height="18" viewBox="0 0 18 18" fill="none" xmlns="http://www.w3.org/2000/svg">
<path d="M10.9196 8.26295L10.566 7.9094L10.2125 8.26295L6.43268 12.0427L5.96479 11.5748L9.74457 7.79506L10.0981 7.4415L9.74457 7.08795L8.82526 6.16864L11.8252 6.17395L11.8305 9.17392L10.9196 8.26295ZM16.166 8.99984C16.166 5.04869 12.9505 1.83317 8.99935 1.83317C5.04821 1.83317 1.83268 5.04869 1.83268 8.99984C1.83268 12.951 5.04821 16.1665 8.99935 16.1665C12.9505 16.1665 16.166 12.951 16.166 8.99984ZM1.16602 8.99984C1.16602 4.67598 4.67549 1.1665 8.99935 1.1665C13.3232 1.1665 16.8327 4.67598 16.8327 8.99984C16.8327 13.3237 13.3232 16.8332 8.99935 16.8332C4.67549 16.8332 1.16602 13.3237 1.16602 8.99984Z" fill="#7375FD" stroke="#FDB022"/>
</svg>
