<svg version="1.0" xmlns="http://www.w3.org/2000/svg"
 width="28" height="28" viewBox="0 0 126.000000 126.000000"
 preserveAspectRatio="xMidYMid meet">

<g transform="translate(0.000000,126.000000) scale(0.100000,-0.100000)"
fill="#000000" stroke="none">
<path d="M485 1004 c-144 -36 -310 -150 -421 -288 l-63 -79 17 -30 c26 -45
148 -173 213 -222 224 -173 487 -192 723 -53 76 45 216 174 272 250 l36 48
-36 48 c-56 76 -196 205 -272 250 -106 62 -181 84 -304 88 -71 2 -125 -1 -165
-12z m295 -81 c124 -34 280 -145 354 -252 l29 -41 -29 -41 c-45 -65 -157 -163
-231 -202 -97 -50 -173 -70 -273 -70 -100 0 -176 20 -273 70 -74 39 -186 137
-231 202 l-29 41 29 41 c68 99 221 212 338 249 98 31 211 33 316 3z"/>
<path d="M526 840 c-84 -42 -126 -112 -126 -209 0 -139 91 -231 230 -231 138
0 230 92 230 230 0 97 -44 171 -125 209 -59 28 -154 28 -209 1z"/>
</g>
</svg>
